<svg xmlns="http://www.w3.org/2000/svg" xmlns:xlink="http://www.w3.org/1999/xlink" width="78" height="69" viewBox="0 0 78 69">
    <defs>
        <path id="a" d="M0 0h77.193v69.018H0z"/>
    </defs>
    <g fill="none" fill-rule="evenodd" opacity=".8">
        <mask id="b" fill="#fff">
            <use xlink:href="#a"/>
        </mask>
        <path fill="#FFF" d="M56.891 4.825c4.09 0 7.944 1.666 10.854 4.689a16.114 16.114 0 0 1 0 22.4l-29.113 30.32c-4.848-5.039-9.7-10.07-14.55-15.101-4.877-5.06-9.754-10.119-14.629-15.184a16.102 16.102 0 0 1 0-22.4c2.907-3.02 6.762-4.684 10.854-4.685 4.092 0 7.946 1.665 10.854 4.685l5.677 5.907c.938.97 2.55.973 3.49 0l5.709-5.942c2.91-3.023 6.764-4.69 10.854-4.69m14.344.903C67.41 1.754 62.317-.435 56.89-.436c-5.424 0-10.518 2.19-14.343 6.163l-3.98 4.133-3.918-4.097C30.81 1.772 25.717-.425 20.307-.425c-5.409 0-10.502 2.197-14.342 6.188-7.954 8.264-7.954 21.71 0 29.973 5.044 5.241 10.088 10.477 15.132 15.713 5.258 5.458 10.516 10.916 15.775 16.38a2.411 2.411 0 0 0 1.743.754c.656 0 1.276-.268 1.745-.754L71.235 35.7c7.944-8.272 7.944-21.717 0-29.973" mask="url(#b)"/>
    </g>
</svg>
