<svg xmlns="http://www.w3.org/2000/svg" width="253" height="26" viewBox="0 0 253 26">
    <g fill="#FFF" fill-rule="evenodd">
        <path d="M1.783 24.135h22.353V1.782H1.783v22.353zM25.026 0H.891C.401 0 0 .4 0 .892v24.135c0 .49.4.891.891.891h24.135c.492 0 .892-.4.892-.89V.891c0-.492-.4-.892-.892-.892z"/>
        <path d="M3.909 7.696c.425 0 .77-.347.77-.77V4.679h2.247a.77.77 0 0 0 0-1.541H3.909a.773.773 0 0 0-.772.771v3.017c0 .423.347.77.772.77M18.993 4.68h2.247v2.246a.771.771 0 0 0 1.541 0V3.908a.772.772 0 0 0-.771-.77h-3.017a.772.772 0 0 0 0 1.541M3.909 22.78h3.017a.772.772 0 0 0 0-1.54H4.679v-2.246a.772.772 0 0 0-1.542 0v3.015c0 .425.347.772.772.772M18.993 22.78h3.017a.773.773 0 0 0 .771-.77v-3.016a.772.772 0 0 0-1.541 0v2.245h-2.247a.772.772 0 0 0 0 1.542M9.033 11.555a.773.773 0 0 0 .772-.771V8.999a.772.772 0 0 0-1.542 0v1.785c0 .424.346.77.77.77M17.206 11.555a.773.773 0 0 0 .771-.771V8.999a.772.772 0 0 0-1.542 0v1.785c0 .424.346.77.771.77M9.536 16.808c-.01.206.059.403.197.557.058.063 1.432 1.562 3.45 1.562 2.022 0 3.378-1.503 3.435-1.567a.766.766 0 0 0-.066-1.088.75.75 0 0 0-.558-.192.763.763 0 0 0-.529.256c-.009.011-.96 1.05-2.281 1.05-1.314 0-2.3-1.046-2.307-1.054a.77.77 0 0 0-1.341.476M11.516 15.103c.361.138.709.208 1.032.208.415 0 .787-.111 1.104-.33.506-.348.807-.944.807-1.594v-3.52a.772.772 0 0 0-1.541 0v3.52c0 .115-.044.259-.142.324-.131.093-.391.075-.712-.048a.77.77 0 1 0-.549 1.44M38.867 7.818v3.655h8.432v4.843h-8.432v7.543h-6.292V2.778h15.416v5.04zM60.611 7.982l-2.141 7.774h4.282l-2.14-7.774zm4.315 15.877L63.905 20.4h-6.589l-1.119 3.459h-6.62L57.02 2.778h7.38l7.179 21.08h-6.653zM84.399 24.188c-8.4 0-9.914-5.6-9.914-10.87s1.548-10.87 9.914-10.87c7.247 0 9.719 4.25 9.719 9.19h-6.325c-.33-3.063-1.285-4.084-3.394-4.084-3.096 0-3.524 2.634-3.524 5.764 0 3.13.264 5.797 3.524 5.797 2.141 0 2.999-1.02 3.394-4.182h6.325c0 5.171-2.439 9.255-9.72 9.255M98.832 23.859V2.778h15.644v5.04h-9.353v3.03h8.4v4.578h-8.4v3.393h9.353v5.04zM137.045 23.859h-7.279l-7.248-21.081h6.82l4.116 15.12 4.25-15.12h6.784zM147.655 23.86h6.324V2.778h-6.324zM168.114 24.188c-7.05 0-9.684-2.931-9.684-8.103h6.323c0 2.174.857 3.294 3.227 3.294 2.372 0 2.702-1.186 2.702-1.944 0-3.163-11.594-.625-11.825-7.938-.132-3.722 2.043-7.049 8.795-7.049 6.883 0 8.991 3.327 8.991 7.577h-6.224c0-1.945-.725-2.8-2.932-2.8-2.04 0-2.535.922-2.34 2.075.43 2.668 11.73.264 11.73 7.97 0 3.097-2.012 6.918-8.763 6.918M181.392 23.86h6.325V2.778h-6.325zM202.97 7.818v16.04h-6.257V7.819h-4.976v-5.04h16.206v5.04zM220.004 7.554c-3.59 0-3.822 2.634-3.822 5.764 0 3.13.232 5.797 3.822 5.797 3.622 0 3.821-2.668 3.821-5.764 0-3.163-.2-5.797-3.821-5.797m0 16.634c-8.598 0-10.211-5.567-10.211-10.87 0-5.303 1.647-10.87 10.21-10.87 8.598 0 10.245 5.567 10.245 10.903 0 5.27-1.647 10.837-10.244 10.837M242.21 7.818h-1.679v4.676h1.679c2.274 0 2.8-.89 2.8-2.306 0-1.547-.56-2.37-2.8-2.37zm2.9 16.04l-4.579-7.806v7.807h-6.325V2.778h8.235c8.235 0 8.96 4.38 8.96 7.41 0 2.834-1.35 5.37-4.512 5.963l6.092 7.708h-7.871z"/>
    </g>
</svg>
